<svg id="Capa_1" data-name="Capa 1" xmlns="http://www.w3.org/2000/svg" xmlns:xlink="http://www.w3.org/1999/xlink" viewBox="0 0 383.11 383.11"><defs><style>.cls-1{fill:#3c3c3b;}.cls-2{fill:url(#Degradado_sin_nombre_67);}</style><linearGradient id="Degradado_sin_nombre_67" x1="68.48" y1="191.65" x2="314.66" y2="191.65" gradientUnits="userSpaceOnUse"><stop offset="0" stop-color="#dc98c2"/><stop offset="0.5" stop-color="#fdc800"/><stop offset="1" stop-color="#addef9"/></linearGradient></defs><title>icon</title><circle class="cls-1" cx="191.56" cy="191.56" r="191.56"/><path class="cls-2" d="M211.26,309.73A19.71,19.71,0,1,1,191.56,290,19.7,19.7,0,0,1,211.26,309.73Zm-55.45-35.91h0l-31.41-18.14L93,273.81a17.45,17.45,0,0,1-2.86,1.31l51,29.45a.68.68,0,0,1,0-.14,17,17,0,1,0,14.64-30.61ZM314.16,251.2h0a14.33,14.33,0,0,1-.18,1.59l0,.2a12.78,12.78,0,0,1-.32,1.36c0,.11-.05.22-.09.33-.12.41-.27.82-.43,1.23l-.15.37a16.14,16.14,0,0,1-.75,1.5l-.45.77h0l-.66,1.13,0,0a29,29,0,0,1-1.86,3l-.21.29a28.56,28.56,0,0,1-8.76,7.87L242,304.57c0-.05,0-.09,0-.14a17,17,0,1,1-14.65-30.61h0l37.15-21.45-45-26a14.64,14.64,0,0,1-3-2.37,40.87,40.87,0,0,1-49,.52c-.18.18-.36.36-.55.53a14.47,14.47,0,0,1-2.43,1.75L94.05,267.45A14.75,14.75,0,0,1,78.6,267h0a14.63,14.63,0,0,1-1.29-.94l-.15-.13a13.17,13.17,0,0,1-1-.95,3,3,0,0,1-.25-.25q-.44-.47-.84-1c-.08-.1-.17-.2-.25-.31a13.52,13.52,0,0,1-.92-1.4l-.45-.77h0l-.66-1.13h0a28.1,28.1,0,0,1-1.68-3.1c0-.11-.1-.22-.14-.33a28.52,28.52,0,0,1-2.44-11.53V179.93l0,0A17,17,0,0,1,94,164.25a17,17,0,0,1,8.1,18.35l.38-.1v40.89l45-26a14.65,14.65,0,0,1,3.47-1.44,40.18,40.18,0,0,1-.24-4.41,40.89,40.89,0,0,1,23.86-37.18,14.25,14.25,0,0,1-.39-1.46,14.53,14.53,0,0,1-.3-3V68.69a14.77,14.77,0,0,1,8.1-13.17h0a15.93,15.93,0,0,1,1.47-.64l.19-.07c.43-.16.88-.29,1.33-.41l.33-.08c.42-.1.85-.18,1.28-.24l.39-.06a15.47,15.47,0,0,1,1.68-.1h2.21v0a27.7,27.7,0,0,1,3.53.11l.36,0a28.71,28.71,0,0,1,11.2,3.66l57.51,33.2,0,0a17,17,0,1,1-19.14,27.91,1.21,1.21,0,0,0-.05.18L207.8,98v52a14.84,14.84,0,0,1-.52,3.85,40.91,40.91,0,0,1,25.16,37.76c0,1.28-.06,2.54-.18,3.8a12.43,12.43,0,0,1,1.45.39,14.63,14.63,0,0,1,2.72,1.22L306.8,237.6A14.76,14.76,0,0,1,314.16,251.2ZM203.44,191.56a11.89,11.89,0,1,0-11.88,11.88A11.88,11.88,0,0,0,203.44,191.56Zm100.42-42.08a19.7,19.7,0,1,0-26.92-7.21A19.7,19.7,0,0,0,303.86,149.48Zm10.79,30.21a16.81,16.81,0,0,0-2.27-8.47,17,17,0,0,0-31.47,11.09l-.21-.05v35.35l31.4,18.13a18.17,18.17,0,0,1,2.56,1.82V179.69Zm-235.37-31a19.71,19.71,0,1,0-7.21-26.92A19.71,19.71,0,0,0,79.28,148.73Zm40.49-29.19a17,17,0,0,0,18.89-1.28l0,0,30.91-17.85V64.19a19,19,0,0,1,.29-3.13l-51,29.46.14.1a16.94,16.94,0,0,0,.77,28.92Z"/></svg>